<?xml version="1.0" encoding="UTF-8"?>
<svg version="1.1" xmlns="http://www.w3.org/2000/svg" width="1080" height="1080">
<path d="M0 0 C3.70353852 2.98534938 7.00349739 6.26023893 10.26367188 9.72021484 C11.38708984 10.90744141 11.38708984 10.90744141 12.53320312 12.11865234 C25.04158731 26.51644829 29.46102441 44.9531481 28.43212891 63.66699219 C27.20123031 78.66968376 21.54220167 91.07584478 12.26367188 102.72021484 C11.7815625 103.36732422 11.29945313 104.01443359 10.80273438 104.68115234 C0.95727804 117.25829599 -16.15487878 125.507587 -31.73632812 127.72021484 C-51.97334519 129.57916417 -70.75624017 125.37995401 -87.11132812 112.84521484 C-100.66585953 101.23970103 -110.42795312 85.65286884 -112.73632812 67.72021484 C-114.14276553 45.74859138 -109.80301539 26.17563391 -95.06396484 9.20776367 C-70.98661769 -17.15003706 -28.71458744 -21.16449204 0 0 Z M-86.73632812 14.72021484 C-87.37054688 15.33380859 -88.00476563 15.94740234 -88.65820312 16.57958984 C-99.89269838 28.21176635 -104.24546337 43.90283087 -104.0859375 59.66674805 C-103.59281437 76.47791527 -96.45686864 90.69914765 -84.73632812 102.72021484 C-73.12585279 112.91477855 -58.70009569 119.45251062 -43.13085938 119.16943359 C-40.40465989 118.8952451 -40.40465989 118.8952451 -38.11132812 116.03271484 C-35.67582343 110.16536263 -34.74325464 104.42167055 -36.42382812 98.15771484 C-38.9540455 93.45873972 -41.80530303 89.85699239 -46.73632812 87.72021484 C-47.73632812 86.72021484 -48.73632812 85.72021484 -49.73632812 84.72021484 C-51.38704208 83.69409536 -53.05602819 82.69713341 -54.73632812 81.72021484 C-55.78820312 80.99833984 -56.84007812 80.27646484 -57.92382812 79.53271484 C-60.45886185 77.53964773 -60.45886185 77.53964773 -62.73632812 77.72021484 C-62.96320312 77.10146484 -63.19007813 76.48271484 -63.42382812 75.84521484 C-64.58564784 73.49300853 -64.58564784 73.49300853 -67.23632812 72.72021484 C-69.73632812 71.72021484 -69.73632812 71.72021484 -70.92382812 69.78271484 C-71.19195312 69.10208984 -71.46007812 68.42146484 -71.73632812 67.72021484 C-72.39632812 66.73021484 -73.05632812 65.74021484 -73.73632812 64.72021484 C-74.39632812 64.72021484 -75.05632812 64.72021484 -75.73632812 64.72021484 C-76.00445312 63.64771484 -76.27257812 62.57521484 -76.54882812 61.47021484 C-77.42420692 57.84148032 -77.42420692 57.84148032 -79.27856445 55.94775391 C-81.37337753 52.74677006 -81.17267158 50.12850473 -81.24804688 46.32958984 C-81.27497368 45.27266937 -81.27497368 45.27266937 -81.30244446 44.19439697 C-81.3564467 41.95306305 -81.390409 39.7119408 -81.42382812 37.47021484 C-81.45701031 35.94674795 -81.49150081 34.42330896 -81.52734375 32.89990234 C-81.6121655 29.17354324 -81.67902537 25.44711021 -81.73632812 21.72021484 C-80.08632813 21.72021484 -78.43632812 21.72021484 -76.73632812 21.72021484 C-76.40632813 25.02021484 -76.07632813 28.32021484 -75.73632812 31.72021484 C-75.07632813 31.72021484 -74.41632813 31.72021484 -73.73632812 31.72021484 C-73.50945312 32.89583984 -73.28257812 34.07146484 -73.04882812 35.28271484 C-71.89540374 39.9716357 -69.7661528 42.99119986 -66.73632812 46.72021484 C-66.40632812 46.72021484 -66.07632813 46.72021484 -65.73632812 46.72021484 C-65.50945313 45.50333984 -65.28257812 44.28646484 -65.04882812 43.03271484 C-64.00797323 38.7401381 -62.03560785 36.67220196 -58.73632812 33.72021484 C-58.73632812 33.06021484 -58.73632812 32.40021484 -58.73632812 31.72021484 C-54.77632812 31.72021484 -50.81632813 31.72021484 -46.73632812 31.72021484 C-46.73632812 32.38021484 -46.73632812 33.04021484 -46.73632812 33.72021484 C-45.41632813 34.05021484 -44.09632813 34.38021484 -42.73632812 34.72021484 C-42.24132812 37.19521484 -42.24132812 37.19521484 -41.73632812 39.72021484 C-41.07632813 39.72021484 -40.41632813 39.72021484 -39.73632812 39.72021484 C-39.73632812 41.37021484 -39.73632812 43.02021484 -39.73632812 44.72021484 C-38.36069958 43.43056308 -37.0286642 42.09332192 -35.73632812 40.72021484 C-35.73632812 40.06021484 -35.73632812 39.40021484 -35.73632812 38.72021484 C-34.90101563 38.62740234 -34.90101563 38.62740234 -34.04882812 38.53271484 C-30.75512029 37.37546615 -29.14128059 35.23702556 -26.73632812 32.72021484 C-25.58041971 31.70779851 -24.41320482 30.70817858 -23.23632812 29.72021484 C-18.99308384 26.11849777 -15.13987372 22.23669556 -11.42382812 18.09521484 C-10.91207031 17.52544922 -10.4003125 16.95568359 -9.87304688 16.36865234 C-8.45248444 14.64232065 -8.45248444 14.64232065 -8.73632812 11.72021484 C-7.74632812 11.39021484 -6.75632812 11.06021484 -5.73632812 10.72021484 C-6.11263415 8.40862071 -6.38154795 7.06272597 -8.09179688 5.41162109 C-33.82931298 -10.44795706 -65.62826611 -6.99527341 -86.73632812 14.72021484 Z M-2.73632812 10.72021484 C-2.70410156 11.41244141 -2.671875 12.10466797 -2.63867188 12.81787109 C-2.80816953 27.11217372 -12.13573374 37.67252507 -21.39355469 47.7097168 C-24.31189421 50.89499907 -26.46627795 53.48671426 -27.73632812 57.72021484 C-28.39632812 57.72021484 -29.05632812 57.72021484 -29.73632812 57.72021484 C-32.02975559 63.61759977 -33.08181526 68.38628402 -32.73632812 74.72021484 C-34.22132813 75.21521484 -34.22132813 75.21521484 -35.73632812 75.72021484 C-34.74632812 75.72021484 -33.75632812 75.72021484 -32.73632812 75.72021484 C-32.48882813 76.29771484 -32.24132812 76.87521484 -31.98632812 77.47021484 C-30.82504016 79.80320352 -30.82504016 79.80320352 -28.86132812 81.59521484 C-24.35780933 86.09873364 -22.16787343 90.02718956 -21.68554688 96.32958984 C-21.76919852 100.26765209 -22.65698843 103.94698601 -23.73632812 107.72021484 C-24.39632812 107.72021484 -25.05632812 107.72021484 -25.73632812 107.72021484 C-25.96320313 108.27708984 -26.19007813 108.83396484 -26.42382812 109.40771484 C-28.09129511 112.34563287 -30.32653042 114.37383287 -32.73632812 116.72021484 C-32.73632812 117.05021484 -32.73632812 117.38021484 -32.73632812 117.72021484 C-17.6384812 116.84918521 -5.26330142 108.03784334 4.93945312 97.45068359 C16.64214121 83.70248364 20.20695578 67.36311748 19.26367188 49.72021484 C17.37290144 35.58750701 10.84716267 21.94127886 -0.17382812 12.65771484 C-1.44226563 11.69865234 -1.44226563 11.69865234 -2.73632812 10.72021484 Z M-65.73632812 46.72021484 C-65.40632812 47.71021484 -65.07632813 48.70021484 -64.73632812 49.72021484 C-64.73632812 48.73021484 -64.73632812 47.74021484 -64.73632812 46.72021484 C-65.06632813 46.72021484 -65.39632812 46.72021484 -65.73632812 46.72021484 Z M-58.73632812 54.72021484 C-54.25457992 60.61200194 -54.25457992 60.61200194 -47.73632812 63.72021484 C-47.73632812 64.38021484 -47.73632812 65.04021484 -47.73632812 65.72021484 C-47.07632813 65.72021484 -46.41632813 65.72021484 -45.73632812 65.72021484 C-45.73632812 66.38021484 -45.73632812 67.04021484 -45.73632812 67.72021484 C-45.07632813 67.39021484 -44.41632813 67.06021484 -43.73632812 66.72021484 C-44.47882813 65.14240234 -44.47882813 65.14240234 -45.23632812 63.53271484 C-46.8289432 60.14840781 -46.73632812 58.85104276 -46.73632812 54.72021484 C-50.69632813 54.72021484 -54.65632812 54.72021484 -58.73632812 54.72021484 Z " fill="#0B605B" transform="translate(582.736328125,406.27978515625)"/>
<path d="M0 0 C0.99 0.33 1.98 0.66 3 1 C4.44733067 11.59588996 1.513151 18.65141922 -4.51416016 27.04882812 C-8.1564184 31.83176074 -12.13353747 36.31606344 -16.1796875 40.7578125 C-18.02126007 42.79273229 -19.32667413 44.54445689 -20.7578125 46.9296875 C-21.16773438 47.61289062 -21.57765625 48.29609375 -22 49 C-22.66 49 -23.32 49 -24 49 C-24.72772288 51.9886095 -25.38012327 54.98721678 -26 58 C-26.1753125 58.80050781 -26.350625 59.60101563 -26.53125 60.42578125 C-26.92957498 62.70465973 -27.18169843 64.69242998 -27 67 C-24.93973281 69.64581624 -24.93973281 69.64581624 -22 72 C-17.44784008 77.51908649 -14.39970262 82.68387573 -15 90 C-15.75835711 93.11400388 -16.76358232 96.04517132 -18 99 C-18.66 99 -19.32 99 -20 99 C-20.3403125 100.0828125 -20.3403125 100.0828125 -20.6875 101.1875 C-22.59121163 105.26688207 -25.33631307 107.89087538 -29.0625 110.375 C-31.41623583 111.13426962 -32.70056887 110.8212254 -35 110 C-34.2884375 108.6696875 -34.2884375 108.6696875 -33.5625 107.3125 C-30.84252535 101.54615373 -29.96817926 95.6113726 -31.75 89.375 C-34.35607825 84.42345133 -37.21827295 81.78934078 -42 79 C-42 78.34 -42 77.68 -42 77 C-42.804375 76.79375 -43.60875 76.5875 -44.4375 76.375 C-51.34939372 73.70725155 -56.98919783 69.42836901 -62 64 C-62.9075 63.13375 -63.815 62.2675 -64.75 61.375 C-67 59 -67 59 -68 56 C-68.66 56 -69.32 56 -70 56 C-70.26554687 55.45730469 -70.53109375 54.91460937 -70.8046875 54.35546875 C-71.15789062 53.64003906 -71.51109375 52.92460937 -71.875 52.1875 C-72.22304688 51.47980469 -72.57109375 50.77210938 -72.9296875 50.04296875 C-74.0656486 47.78753582 -74.0656486 47.78753582 -76 45 C-76.17112002 42.52943177 -76.23253124 40.17496079 -76.1953125 37.70703125 C-76.1924826 37.00100266 -76.18965271 36.29497406 -76.18673706 35.56755066 C-76.17555464 33.31569367 -76.1504542 31.06423648 -76.125 28.8125 C-76.11496767 27.28451096 -76.10584226 25.75651567 -76.09765625 24.22851562 C-76.07562172 20.48552337 -76.04110567 16.74282944 -76 13 C-74.34385343 12.61781233 -72.67542976 12.28604898 -71 12 C-70 13 -70 13 -69.90234375 15.28515625 C-69.91394531 16.20167969 -69.92554688 17.11820312 -69.9375 18.0625 C-69.94652344 18.98160156 -69.95554687 19.90070313 -69.96484375 20.84765625 C-69.97644531 21.55792969 -69.98804688 22.26820313 -70 23 C-69.34 23 -68.68 23 -68 23 C-67.74605469 23.59167969 -67.49210937 24.18335938 -67.23046875 24.79296875 C-65.38218665 29.03640294 -63.51681595 33.09893529 -61 37 C-60.81824219 36.38511719 -60.63648438 35.77023437 -60.44921875 35.13671875 C-60.19785156 34.32847656 -59.94648437 33.52023437 -59.6875 32.6875 C-59.44386719 31.88699219 -59.20023438 31.08648437 -58.94921875 30.26171875 C-57.94645651 27.87242107 -57.01940718 26.60410493 -55 25 C-54.34 25 -53.68 25 -53 25 C-53 24.34 -53 23.68 -53 23 C-44.42857143 21.71428571 -44.42857143 21.71428571 -41 23 C-41 23.66 -41 24.32 -41 25 C-39.68 25.33 -38.36 25.66 -37 26 C-36.505 28.475 -36.505 28.475 -36 31 C-35.34 31 -34.68 31 -34 31 C-33.505 32.485 -33.505 32.485 -33 34 C-32.566875 33.360625 -32.13375 32.72125 -31.6875 32.0625 C-30 30 -30 30 -27 29 C-25.31002677 27.35697047 -23.64783606 25.68528688 -22 24 C-20.84294028 22.98889965 -19.67581933 21.98922192 -18.5 21 C-9.1082056 13.21759045 -9.1082056 13.21759045 -3 3 C-1.4375 1.3125 -1.4375 1.3125 0 0 Z M-60 38 C-59.67 38.99 -59.34 39.98 -59 41 C-59 40.01 -59 39.02 -59 38 C-59.33 38 -59.66 38 -60 38 Z M-53 46 C-48.51825179 51.8917871 -48.51825179 51.8917871 -42 55 C-42 55.66 -42 56.32 -42 57 C-41.34 57 -40.68 57 -40 57 C-40 57.66 -40 58.32 -40 59 C-39.34 58.67 -38.68 58.34 -38 58 C-38.7425 56.4221875 -38.7425 56.4221875 -39.5 54.8125 C-41.09261507 51.42819297 -41 50.13082792 -41 46 C-44.96 46 -48.92 46 -53 46 Z " fill="#226FBF" transform="translate(577,415)"/>
<path d="M0 0 C4.29 0 8.58 0 13 0 C14.00622742 3.58169045 15.00520012 7.16513557 16 10.75 C16.28617187 11.76578125 16.57234375 12.7815625 16.8671875 13.828125 C17.27324219 15.29765625 17.27324219 15.29765625 17.6875 16.796875 C17.93886719 17.69760742 18.19023437 18.59833984 18.44921875 19.52636719 C19 22 19 22 19 26 C19.66 26 20.32 26 21 26 C21.08636719 25.46375 21.17273438 24.9275 21.26171875 24.375 C22.75997224 16.01776954 25.38060626 8.05813494 28 0 C30.97 0 33.94 0 37 0 C39.31 7.92 41.62 15.84 44 24 C45.81916965 21.27124553 46.47930558 19.70750971 47.25390625 16.62109375 C47.46853516 15.78255859 47.68316406 14.94402344 47.90429688 14.08007812 C48.12150391 13.20802734 48.33871094 12.33597656 48.5625 11.4375 C48.99937837 9.70654458 49.43809334 7.97605136 49.87890625 6.24609375 C50.16616577 5.09645142 50.16616577 5.09645142 50.45922852 3.92358398 C51 2 51 2 52 0 C55.96 0 59.92 0 64 0 C62.37946933 9.6646106 59.35793444 18.81508481 56.375 28.125 C55.8536805 29.76547058 55.33284315 31.40609447 54.8125 33.046875 C53.54721984 37.03303962 52.27542859 41.01707149 51 45 C47.04 45 43.08 45 39 45 C38.57847656 43.49566406 38.15695312 41.99132812 37.72265625 40.44140625 C37.16944394 38.48172196 36.61604911 36.52208918 36.0625 34.5625 C35.78470703 33.56927734 35.50691406 32.57605469 35.22070312 31.55273438 C34.81948242 30.13637695 34.81948242 30.13637695 34.41015625 28.69140625 C34.04096069 27.37958374 34.04096069 27.37958374 33.66430664 26.04125977 C33.18004206 24.02885154 33.18004206 24.02885154 32 23 C31.73521851 23.94637329 31.73521851 23.94637329 31.46508789 24.91186523 C30.66764242 27.75471508 29.86514132 30.59611298 29.0625 33.4375 C28.64581055 34.92733398 28.64581055 34.92733398 28.22070312 36.44726562 C27.95322266 37.39150391 27.68574219 38.33574219 27.41015625 39.30859375 C27.16402588 40.18314209 26.91789551 41.05769043 26.66430664 41.95874023 C26 44 26 44 25 45 C23.14712498 45.07226502 21.29166122 45.0838122 19.4375 45.0625 C18.42558594 45.05347656 17.41367187 45.04445313 16.37109375 45.03515625 C15.19740234 45.01775391 15.19740234 45.01775391 14 45 C9.1672111 30.04752097 4.44590853 15.07230356 0 0 Z " fill="#0D6D10" transform="translate(489,540)"/>
<path d="M0 0 C0.99 0.33 1.98 0.66 3 1 C3.66 4.3 4.32 7.6 5 11 C5.66 11 6.32 11 7 11 C7.24492187 11.61746094 7.48984375 12.23492187 7.7421875 12.87109375 C10.67138875 19.50724969 14.28284553 23.51900575 19.890625 28.08984375 C22 30 22 30 23 33 C23.825 33.33 24.65 33.66 25.5 34 C26.325 34.33 27.15 34.66 28 35 C28.33 35.99 28.66 36.98 29 38 C29.721875 38.28875 30.44375 38.5775 31.1875 38.875 C34.00749261 40.00299705 35.87562117 41.40025824 38.13671875 43.3984375 C39.57923423 44.6383355 41.07162255 45.82033436 42.58203125 46.9765625 C48.90130406 51.86946047 54.22303873 56.85857835 58 64 C58 64.99 58 65.98 58 67 C58.66 67 59.32 67 60 67 C59.88490339 68.41750563 59.75746342 69.83401169 59.625 71.25 C59.55539062 72.03890625 59.48578125 72.8278125 59.4140625 73.640625 C58.98492887 76.085877 58.21399362 77.84836903 57 80 C56.34 80 55.68 80 55 80 C54.6596875 81.0828125 54.6596875 81.0828125 54.3125 82.1875 C52.40878837 86.26688207 49.66368693 88.89087538 45.9375 91.375 C43.58376417 92.13426962 42.29943113 91.8212254 40 91 C40.7115625 89.6696875 40.7115625 89.6696875 41.4375 88.3125 C44.15747465 82.54615373 45.03182074 76.6113726 43.25 70.375 C40.64392175 65.42345133 37.78172705 62.78934078 33 60 C33 59.34 33 58.68 33 58 C32.195625 57.79375 31.39125 57.5875 30.5625 57.375 C23.65060628 54.70725155 18.01080217 50.42836901 13 45 C12.0925 44.13375 11.185 43.2675 10.25 42.375 C8 40 8 40 7 37 C6.34 37 5.68 37 5 37 C4.73445313 36.45730469 4.46890625 35.91460937 4.1953125 35.35546875 C3.84210938 34.64003906 3.48890625 33.92460937 3.125 33.1875 C2.77695312 32.47980469 2.42890625 31.77210938 2.0703125 31.04296875 C0.9343514 28.78753582 0.9343514 28.78753582 -1 26 C-1.24291992 23.38037109 -1.24291992 23.38037109 -1.23046875 20.2734375 C-1.22756836 18.6028125 -1.22756836 18.6028125 -1.22460938 16.8984375 C-1.21236328 15.73570312 -1.20011719 14.57296875 -1.1875 13.375 C-1.18685547 12.20453125 -1.18621094 11.0340625 -1.18554688 9.828125 C-1.14019224 1.14019224 -1.14019224 1.14019224 0 0 Z " fill="#2472C1" transform="translate(502,434)"/>
<path d="M0 0 C3.63 0 7.26 0 11 0 C11 5.61 11 11.22 11 17 C16.28 17 21.56 17 27 17 C27 11.39 27 5.78 27 0 C30.63 0 34.26 0 38 0 C38 14.85 38 29.7 38 45 C34.37 45 30.74 45 27 45 C27 39.39 27 33.78 27 28 C21.72 28 16.44 28 11 28 C11 33.61 11 39.22 11 45 C7.37 45 3.74 45 0 45 C0 30.15 0 15.3 0 0 Z " fill="#0D6D10" transform="translate(408,540)"/>
<path d="M0 0 C4.62 0 9.24 0 14 0 C17.60136636 7.70972119 20.53070701 15.6202307 23.42871094 23.61328125 C24.25647248 25.89282434 25.09282873 28.16909572 25.9296875 30.4453125 C26.45885313 31.89824829 26.98751744 33.35136679 27.515625 34.8046875 C27.8905307 35.82186356 27.8905307 35.82186356 28.27301025 36.85958862 C29.30329721 39.72110637 30 41.93199044 30 45 C26.04 45 22.08 45 18 45 C16 40 16 40 16 37 C10.39 37 4.78 37 -1 37 C-1.66 39.64 -2.32 42.28 -3 45 C-7.29 45 -11.58 45 -16 45 C-11.06274096 29.83368565 -5.8169814 14.8518674 0 0 Z M7 12 C4.91864693 17.29798964 3.28708387 22.45563871 2 28 C5.63 28 9.26 28 13 28 C11.35 22.72 9.7 17.44 8 12 C7.67 12 7.34 12 7 12 Z " fill="#0D6D10" transform="translate(641,540)"/>
<path d="M0 0 C5.19764827 2.72311573 7.98011524 6.86612696 9.796875 12.31640625 C10.58060988 18.83039942 9.58539852 23.91470498 5.796875 29.31640625 C0.47954181 34.37435734 -4.09930826 34.67079556 -11.1875 34.59375 C-15.65332562 34.18303288 -17.68112204 33.10465859 -21.203125 30.31640625 C-25.72847555 24.48108581 -27.04677385 19.55772557 -26.203125 12.31640625 C-24.48890225 7.0060423 -21.95884473 3.36494454 -17.203125 0.31640625 C-11.83296866 -1.47364586 -5.44077734 -1.68818446 0 0 Z M-13.203125 11.31640625 C-14.94135701 13.71682188 -15.23292494 14.90914038 -15.015625 17.87890625 C-14.10912671 20.59840112 -13.6020766 21.74467934 -11.203125 23.31640625 C-8.24591872 23.98320993 -8.24591872 23.98320993 -5.203125 23.31640625 C-2.6316311 21.24791755 -2.6316311 21.24791755 -1.203125 18.31640625 C-1.27325522 15.3709369 -1.75486242 13.91408969 -3.515625 11.56640625 C-7.03958605 8.95606473 -9.57543485 8.77702315 -13.203125 11.31640625 Z " fill="#0D6D10" transform="translate(576.203125,551.68359375)"/>
<path d="M0 0 C5.19764827 2.72311573 7.98011524 6.86612696 9.796875 12.31640625 C10.58060988 18.83039942 9.58539852 23.91470498 5.796875 29.31640625 C0.47954181 34.37435734 -4.09930826 34.67079556 -11.1875 34.59375 C-15.65332562 34.18303288 -17.68112204 33.10465859 -21.203125 30.31640625 C-25.72847555 24.48108581 -27.04677385 19.55772557 -26.203125 12.31640625 C-24.48890225 7.0060423 -21.95884473 3.36494454 -17.203125 0.31640625 C-11.83296866 -1.47364586 -5.44077734 -1.68818446 0 0 Z M-13.203125 11.31640625 C-14.94135701 13.71682188 -15.23292494 14.90914038 -15.015625 17.87890625 C-14.10912671 20.59840112 -13.6020766 21.74467934 -11.203125 23.31640625 C-8.24591872 23.98320993 -8.24591872 23.98320993 -5.203125 23.31640625 C-2.6316311 21.24791755 -2.6316311 21.24791755 -1.203125 18.31640625 C-1.27325522 15.3709369 -1.75486242 13.91408969 -3.515625 11.56640625 C-7.03958605 8.95606473 -9.57543485 8.77702315 -13.203125 11.31640625 Z " fill="#0D6D10" transform="translate(477.203125,551.68359375)"/>
<path d="M0 0 C4.47080191 -0.59699135 8.55444032 -0.8679426 13 0 C16.00976779 2.89746302 17.42782898 6.17210535 19 10 C19.61595964 11.21296668 20.23901582 12.42241172 20.875 13.625 C21.24625 14.40875 21.6175 15.1925 22 16 C24.43010662 12.93690154 26.29170606 9.76259336 28.125 6.3125 C30.90084986 1.09915014 30.90084986 1.09915014 32 0 C34.18639453 -0.07258946 36.37500389 -0.08373783 38.5625 -0.0625 C40.35880859 -0.04896484 40.35880859 -0.04896484 42.19140625 -0.03515625 C43.11824219 -0.02355469 44.04507813 -0.01195312 45 0 C44.18746489 1.42193645 43.37467081 2.84372536 42.56079102 4.26489258 C41.84346987 5.52272222 41.1305275 6.78305753 40.42163086 8.0456543 C38.61409126 11.25117253 36.77113953 14.39110688 34.72265625 17.44921875 C28.75712087 26.73733079 27.78943619 34.1296432 28 45 C24.37 45 20.74 45 17 45 C17.10183594 44.07445312 17.20367188 43.14890625 17.30859375 42.1953125 C18.05804321 27.4480207 10.08281791 16.3157925 2.47460938 4.34399414 C1 2 1 2 0 0 Z " fill="#0D6D10" transform="translate(588,540)"/>
<path d="M0 0 C0 0.66 0 1.32 0 2 C1.32 2.33 2.64 2.66 4 3 C4.33 4.65 4.66 6.3 5 8 C5.66 8 6.32 8 7 8 C7 9.65 7 11.3 7 13 C6.01 13.33 5.02 13.66 4 14 C4 14.99 4 15.98 4 17 C3.34 17 2.68 17 2 17 C1.566875 18.4540625 1.566875 18.4540625 1.125 19.9375 C0 23 0 23 -2 24 C-8.70376197 24.79536159 -8.70376197 24.79536159 -12.01171875 22.765625 C-15.57944348 19.74390426 -18.72947476 17.02893927 -19.375 12.1875 C-18.90315637 8.17682912 -17.53013212 6.10844803 -15 3 C-14.01 2.67 -13.02 2.34 -12 2 C-12 1.34 -12 0.68 -12 0 C-7.91556885 -1.53166168 -4.20544343 -0.63081652 0 0 Z " fill="#488D1B" transform="translate(536,438)"/>
<path d="M0 0 C0.99 0.33 1.98 0.66 3 1 C3 1.66 3 2.32 3 3 C2.319375 3.53625 1.63875 4.0725 0.9375 4.625 C-1.47970125 6.57933293 -3.2552025 8.34861156 -5.25 10.6875 C-9.24387937 15.34848889 -13.38714932 19.94144299 -18 24 C-18.66 24 -19.32 24 -20 24 C-20 24.66 -20 25.32 -20 26 C-21.43359375 27.375 -21.43359375 27.375 -23.4375 29 C-34.17405337 38.13999553 -34.17405337 38.13999553 -38.375 50.9375 C-38.34856245 54.48674064 -38.05766802 54.93019134 -35.625 57.875 C-34.325625 58.926875 -34.325625 58.926875 -33 60 C-32.34 60.66 -31.68 61.32 -31 62 C-28.93125966 62.6425235 -28.93125966 62.6425235 -27 63 C-26.938125 63.9075 -26.87625 64.815 -26.8125 65.75 C-25.78480652 69.86077391 -24.30126813 70.44902008 -21 73 C-17.95875528 76.99585764 -15.47777054 80.90378091 -15 86 C-15.66 86 -16.32 86 -17 86 C-17.24234375 85.48050781 -17.4846875 84.96101563 -17.734375 84.42578125 C-18.23710938 83.37970703 -18.23710938 83.37970703 -18.75 82.3125 C-19.07484375 81.62800781 -19.3996875 80.94351563 -19.734375 80.23828125 C-22.29297076 75.71335726 -25.49070213 72.37383276 -29.5625 69.1875 C-30.43261719 68.50558594 -31.30273438 67.82367188 -32.19921875 67.12109375 C-35.93267693 64.29366308 -39.72810307 61.55918092 -43.5546875 58.859375 C-45.92644618 57.0559291 -47.94722274 55.15431248 -50 53 C-52.31555489 50.6182864 -54.62658001 48.31118333 -57.1796875 46.18359375 C-62.36800248 41.83731678 -65.49370863 38.32021303 -68 32 C-68 31.34 -68 30.68 -68 30 C-68.66 30 -69.32 30 -70 30 C-70.99 26.7 -71.98 23.4 -73 20 C-73.99 20 -74.98 20 -76 20 C-76 17.69 -76 15.38 -76 13 C-74.34385343 12.61781233 -72.67542976 12.28604898 -71 12 C-70 13 -70 13 -69.90234375 15.28515625 C-69.91394531 16.20167969 -69.92554688 17.11820312 -69.9375 18.0625 C-69.94652344 18.98160156 -69.95554687 19.90070313 -69.96484375 20.84765625 C-69.97644531 21.55792969 -69.98804688 22.26820313 -70 23 C-69.34 23 -68.68 23 -68 23 C-67.67128906 23.81791016 -67.67128906 23.81791016 -67.3359375 24.65234375 C-62.41476422 36.35513386 -53.73567978 49.13216011 -42 55 C-42 55.66 -42 56.32 -42 57 C-41.34 57 -40.68 57 -40 57 C-40.5259375 55.7625 -40.5259375 55.7625 -41.0625 54.5 C-42.24470449 50.08643656 -41.87995805 47.47312007 -41 43 C-40.34 42.01 -39.68 41.02 -39 40 C-38.34 40 -37.68 40 -37 40 C-36.67 39.01 -36.34 38.02 -36 37 C-34.3540349 35.31288577 -32.68762851 33.6454378 -31 32 C-30.67 31.34 -30.34 30.68 -30 30 C-29.01 29.67 -28.02 29.34 -27 29 C-25.31002677 27.35697047 -23.64783606 25.68528688 -22 24 C-20.84294028 22.98889965 -19.67581933 21.98922192 -18.5 21 C-9.1082056 13.21759045 -9.1082056 13.21759045 -3 3 C-1.4375 1.3125 -1.4375 1.3125 0 0 Z " fill="#689ED6" transform="translate(577,415)"/>
<path d="M0 0 C0.99 0 1.98 0 3 0 C3.99 2.97 4.98 5.94 6 9 C7.29633621 7.93354885 7.29633621 7.93354885 7.0625 5.4375 C7.041875 4.633125 7.02125 3.82875 7 3 C21 3 35 3 49 3 C49.33 2.34 49.66 1.68 50 1 C50.66 1 51.32 1 52 1 C52 1.66 52 2.32 52 3 C52.66 3 53.32 3 54 3 C54 3.66 54 4.32 54 5 C53.34 5 52.68 5 52 5 C52.66 7.31 53.32 9.62 54 12 C53.360625 11.814375 52.72125 11.62875 52.0625 11.4375 C51.0415625 11.2209375 51.0415625 11.2209375 50 11 C49.67 11.33 49.34 11.66 49 12 C47.35563243 12.07250298 45.70832798 12.08375172 44.0625 12.0625 C43.16660156 12.05347656 42.27070312 12.04445313 41.34765625 12.03515625 C40.57292969 12.02355469 39.79820312 12.01195312 39 12 C38.34 12 37.68 12 37 12 C35 12 33 12 31 12 C31 11.34 31 10.68 31 10 C30.01 10.66 29.02 11.32 28 12 C25.45629883 12.22705078 25.45629883 12.22705078 22.45703125 12.1953125 C20.84731445 12.18564453 20.84731445 12.18564453 19.20507812 12.17578125 C17.52575195 12.15064453 17.52575195 12.15064453 15.8125 12.125 C14.68134766 12.11597656 13.55019531 12.10695313 12.38476562 12.09765625 C9.58963172 12.07406862 6.79492155 12.041153 4 12 C3.67 11.34 3.34 10.68 3 10 C0.97536745 9.34786708 0.97536745 9.34786708 -1 9 C-1 9.99 -1 10.98 -1 12 C-1.99 12 -2.98 12 -4 12 C-3.45660208 7.43545749 -2.20536179 4.0271824 0 0 Z M1 4 C0.67 4.99 0.34 5.98 0 7 C0.66 7 1.32 7 2 7 C1.67 6.01 1.34 5.02 1 4 Z M24 5 C23.01 6.485 23.01 6.485 22 8 C23.98 8.99 23.98 8.99 26 10 C26.66 9.01 27.32 8.02 28 7 C26.68 6.34 25.36 5.68 24 5 Z M33 5 C32.67 6.32 32.34 7.64 32 9 C35.01031744 9.93423645 35.86650268 10.04449911 39 9 C39 8.01 39 7.02 39 6 C36.03 5.505 36.03 5.505 33 5 Z M41 5 C41.33 5.99 41.66 6.98 42 8 C43.65 7.67 45.3 7.34 47 7 C46.67 6.34 46.34 5.68 46 5 C44.35 5 42.7 5 41 5 Z M43 9 C47 10 47 10 47 10 Z " fill="#1863B7" transform="translate(596,590)"/>
<path d="M0 0 C0.99 0.33 1.98 0.66 3 1 C3.66 4.3 4.32 7.6 5 11 C5.66 11 6.32 11 7 11 C7.47179687 11.97839844 7.47179687 11.97839844 7.953125 12.9765625 C10.3623266 17.89655855 12.82623341 22.5332174 16 27 C15.01 26.67 14.02 26.34 13 26 C13 25.34 13 24.68 13 24 C11.35 24.99 9.7 25.98 8 27 C8.51881113 31.1724106 9.71151274 33.25416821 12.5625 36.3125 C13.20316406 37.00988281 13.84382812 37.70726562 14.50390625 38.42578125 C14.99761719 38.94527344 15.49132812 39.46476562 16 40 C15.67 40.66 15.34 41.32 15 42 C9.75424537 39.53140959 7.04525904 35.75921373 4 31 C3.50757813 30.24074219 3.01515625 29.48148437 2.5078125 28.69921875 C-2.28268824 19.99782899 -1.6821296 10.64726146 -1 1 C-0.67 0.67 -0.34 0.34 0 0 Z " fill="#1C4E9F" transform="translate(502,434)"/>
<path d="M0 0 C0.66 0 1.32 0 2 0 C2 1.32 2 2.64 2 4 C1.34 4 0.68 4 0 4 C-0.09796875 4.56847656 -0.1959375 5.13695312 -0.296875 5.72265625 C-1.36323919 11.22914031 -2.98284249 15.2731199 -6 20 C-6.66 20 -7.32 20 -8 20 C-8.11770752 20.59458008 -8.23541504 21.18916016 -8.35668945 21.80175781 C-9.3956319 25.351905 -11.88211599 27.92920608 -14.1875 30.75 C-15.189393 31.99952642 -16.19069885 33.24952387 -17.19140625 34.5 C-17.67496582 35.10070312 -18.15852539 35.70140625 -18.65673828 36.3203125 C-20.34922487 38.43668977 -21.99655087 40.58404321 -23.625 42.75 C-24.07101562 43.34296875 -24.51703125 43.9359375 -24.9765625 44.546875 C-26.0821191 46.03974009 -26.0821191 46.03974009 -27 48 C-27.66 48 -28.32 48 -29 48 C-28.49777198 43.43054832 -26.78587988 41.12905025 -23.8125 37.6875 C-22.59433594 36.24503906 -22.59433594 36.24503906 -21.3515625 34.7734375 C-20.57554687 33.85820312 -19.79953125 32.94296875 -19 32 C-14.88984068 26.92063281 -11.75469626 21.93319194 -9 16 C-9.48210938 16.433125 -9.96421875 16.86625 -10.4609375 17.3125 C-11.09257813 17.869375 -11.72421875 18.42625 -12.375 19 C-13.00148438 19.556875 -13.62796875 20.11375 -14.2734375 20.6875 C-16 22 -16 22 -18 22 C-17.61073257 17.48017267 -14.35439532 15.05939272 -11.25 12.125 C-8.06484513 9.07255991 -4.9933895 6.06696848 -2.234375 2.6171875 C-1.49703125 1.75351562 -0.7596875 0.88984375 0 0 Z M-7 13 C-7.33 13.66 -7.66 14.32 -8 15 C-7.34 15 -6.68 15 -6 15 C-6.33 14.34 -6.66 13.68 -7 13 Z " fill="#1C67B9" transform="translate(578,418)"/>
<path d="M0 0 C2 1 2 1 2.796875 3.1953125 C3.11140625 4.16210938 3.4259375 5.12890625 3.75 6.125 C9.58651452 20.51029167 22.49492226 30.24746113 36 37 C36 37.66 36 38.32 36 39 C36.598125 39.28875 37.19625 39.5775 37.8125 39.875 C40 41 40 41 43 43 C43 43.66 43 44.32 43 45 C43.66 45 44.32 45 45 45 C48.75363329 50.63044993 48.82050801 56.38411433 48 63 C46.94314503 65.99213486 45.67555634 68.27722095 44 71 C43.01 70.67 42.02 70.34 41 70 C41.474375 69.278125 41.94875 68.55625 42.4375 67.8125 C45.43440314 62.41807434 45.95298022 56.33543077 44.25 50.375 C41.64392175 45.42345133 38.78172705 42.78934078 34 40 C34 39.34 34 38.68 34 38 C33.195625 37.79375 32.39125 37.5875 31.5625 37.375 C24.65060628 34.70725155 19.01080217 30.42836901 14 25 C13.0925 24.13375 12.185 23.2675 11.25 22.375 C9 20 9 20 8 17 C7.34 17 6.68 17 6 17 C5.60167969 16.18595703 5.60167969 16.18595703 5.1953125 15.35546875 C4.84210938 14.64003906 4.48890625 13.92460937 4.125 13.1875 C3.77695312 12.47980469 3.42890625 11.77210938 3.0703125 11.04296875 C1.9343514 8.78753582 1.9343514 8.78753582 0 6 C-0.125 2.8125 -0.125 2.8125 0 0 Z " fill="#669CCE" transform="translate(501,454)"/>
<path d="M0 0 C0 0.66 0 1.32 0 2 C1.32 2.33 2.64 2.66 4 3 C4.33 4.65 4.66 6.3 5 8 C5.66 8 6.32 8 7 8 C7 9.65 7 11.3 7 13 C6.01 13.495 6.01 13.495 5 14 C4.82984375 13.37351562 4.6596875 12.74703125 4.484375 12.1015625 C4.24203125 11.28429687 3.9996875 10.46703125 3.75 9.625 C3.51796875 8.81289063 3.2859375 8.00078125 3.046875 7.1640625 C1.7785108 4.54214546 0.67576692 4.00617682 -2 3 C-2 3.99 -2 4.98 -2 6 C-3.98 6.33 -5.96 6.66 -8 7 C-8 7.99 -8 8.98 -8 10 C-10.31 10 -12.62 10 -15 10 C-14.67039784 15.01535052 -14.67039784 15.01535052 -12 19 C-12.33 19.99 -12.66 20.98 -13 22 C-18.75236931 16.2133904 -18.75236931 16.2133904 -19.625 11.9375 C-18.83274711 8.21391143 -17.39365814 5.94078 -15 3 C-14.01 2.67 -13.02 2.34 -12 2 C-12 1.34 -12 0.68 -12 0 C-7.91556885 -1.53166168 -4.20544343 -0.63081652 0 0 Z " fill="#B6D38E" transform="translate(536,438)"/>
<path d="M0 0 C4.703153 1.3832803 8.10193812 4.08612262 11 8 C11 8.99 11 9.98 11 11 C11.99 11.33 12.98 11.66 14 12 C14.144375 12.94875 14.28875 13.8975 14.4375 14.875 C14.82935399 17.8934494 14.82935399 17.8934494 16 20 C15.67 20.66 15.34 21.32 15 22 C15.66 22 16.32 22 17 22 C17.04898438 21.30132812 17.09796875 20.60265625 17.1484375 19.8828125 C17.22320313 18.97273438 17.29796875 18.06265625 17.375 17.125 C17.44460938 16.22007812 17.51421875 15.31515625 17.5859375 14.3828125 C18 12 18 12 20 10 C20.2396943 15.63281599 19.38529821 20.54538831 18 26 C18.82022749 24.92250558 19.63086169 23.83770492 20.4375 22.75 C20.88996094 22.14671875 21.34242188 21.5434375 21.80859375 20.921875 C23.03900997 18.93707244 23.56112668 17.28012345 24 15 C24.66 15.33 25.32 15.66 26 16 C25.01 18.97 24.02 21.94 23 25 C22.34 25 21.68 25 21 25 C20.773125 25.721875 20.54625 26.44375 20.3125 27.1875 C18.40100271 31.28356563 15.65275602 33.93056964 11.875 36.375 C10 37 10 37 7 36 C7.66 36 8.32 36 9 36 C9.12375 35.4225 9.2475 34.845 9.375 34.25 C10 32 10 32 11.0234375 30.2265625 C13.39802803 24.81249609 12.48351841 17.81319404 11 12.25 C10.67 11.5075 10.34 10.765 10 10 C9.34 10 8.68 10 8 10 C6.31237149 8.3545622 4.6459651 6.68711423 3 5 C2.34 4.67 1.68 4.34 1 4 C1 3.34 1 2.68 1 2 C0.34 1.67 -0.32 1.34 -1 1 C-0.67 0.67 -0.34 0.34 0 0 Z " fill="#2884D3" transform="translate(536,489)"/>
<path d="M0 0 C0.825 0.04125 1.65 0.0825 2.5 0.125 C3.16 0.125 3.82 0.125 4.5 0.125 C8.16666667 0.125 11.83333333 0.125 15.5 0.125 C16.53125 0.104375 17.5625 0.08375 18.625 0.0625 C21.5 0.125 21.5 0.125 22.5 1.125 C22.625 4.625 22.625 4.625 22.5 8.125 C21.5 9.125 21.5 9.125 18.625 9.1875 C17.078125 9.1565625 17.078125 9.1565625 15.5 9.125 C14.51 9.125 13.52 9.125 12.5 9.125 C10.5 9.125 8.5 9.125 6.5 9.125 C6.5 10.115 6.5 11.105 6.5 12.125 C5.84 12.125 5.18 12.125 4.5 12.125 C4.17 10.805 3.84 9.485 3.5 8.125 C3.17 8.455 2.84 8.785 2.5 9.125 C0.0625 9.3125 0.0625 9.3125 -2.5 9.125 C-4.5 7.125 -4.5 7.125 -4.75 4.625 C-4.40065109 1.13151089 -3.5279401 0.17639701 0 0 Z M-1.5 2.125 C-1.83 3.115 -2.16 4.105 -2.5 5.125 C-2.17 5.785 -1.84 6.445 -1.5 7.125 C-0.51 7.125 0.48 7.125 1.5 7.125 C1.83 6.135 2.16 5.145 2.5 4.125 C2.17 3.465 1.84 2.805 1.5 2.125 C0.51 2.125 -0.48 2.125 -1.5 2.125 Z M8.5 2.125 C7.51 3.61 7.51 3.61 6.5 5.125 C8.48 6.115 8.48 6.115 10.5 7.125 C11.16 6.135 11.82 5.145 12.5 4.125 C11.18 3.465 9.86 2.805 8.5 2.125 Z M17.5 2.125 C17.17 2.785 16.84 3.445 16.5 4.125 C17.82 3.795 19.14 3.465 20.5 3.125 C19.51 2.795 18.52 2.465 17.5 2.125 Z " fill="#1863B7" transform="translate(423.5,592.875)"/>
<path d="M0 0 C0.99 0 1.98 0 3 0 C3.66 1.32 4.32 2.64 5 4 C5.66 2.68 6.32 1.36 7 0 C7.99 0.33 8.98 0.66 10 1 C10.33 1.99 10.66 2.98 11 4 C11.66 2.68 12.32 1.36 13 0 C13.99 0 14.98 0 16 0 C16 1.32 16 2.64 16 4 C16.33 3.67 16.66 3.34 17 3 C20 2.875 20 2.875 23 3 C24 4 24 4 24.125 6.9375 C24 10 24 10 23 12 C17.46153846 12.36923077 17.46153846 12.36923077 15.125 10.5 C14.75375 10.005 14.3825 9.51 14 9 C13.67 9.99 13.34 10.98 13 12 C12.01 12 11.02 12 10 12 C9.67 10.35 9.34 8.7 9 7 C8.34 7 7.68 7 7 7 C6.67 8.65 6.34 10.3 6 12 C5.01 12 4.02 12 3 12 C2.49440092 10.56445975 1.9957251 9.1264798 1.5 7.6875 C1.2215625 6.88699219 0.943125 6.08648438 0.65625 5.26171875 C0 3 0 3 0 0 Z M18 5 C17.67 5.99 17.34 6.98 17 8 C17.33 8.66 17.66 9.32 18 10 C19.32 9.67 20.64 9.34 22 9 C21.67 7.68 21.34 6.36 21 5 C20.01 5 19.02 5 18 5 Z " fill="#1863B7" transform="translate(501,590)"/>
<path d="M0 0 C0.66 0 1.32 0 2 0 C2.42796532 5.68686119 1.30378868 9.27429872 -1.6875 14 C-2.0788916 14.6379248 -2.4702832 15.27584961 -2.87353516 15.93310547 C-7.00441728 22.42222457 -12.01423868 28.08263089 -17.1796875 33.7578125 C-19.02126007 35.79273229 -20.32667413 37.54445689 -21.7578125 39.9296875 C-22.37269531 40.95449219 -22.37269531 40.95449219 -23 42 C-23.66 42 -24.32 42 -25 42 C-25.12117187 42.62648438 -25.24234375 43.25296875 -25.3671875 43.8984375 C-25.53476562 44.71570313 -25.70234375 45.53296875 -25.875 46.375 C-26.03742187 47.18710937 -26.19984375 47.99921875 -26.3671875 48.8359375 C-27 51 -27 51 -29 53 C-29.92400924 45.91592913 -27.13003976 41.62080917 -23 36 C-20.48190348 32.93566354 -17.88815987 29.93915756 -15.22753906 26.99780273 C-12.13477125 23.53805428 -9.8943274 20.29641265 -8 16 C-7.34 16 -6.68 16 -6 16 C-5.87625 15.43410156 -5.7525 14.86820312 -5.625 14.28515625 C-4.96188877 11.86065583 -4.05027978 9.71954172 -3 7.4375 C-1.86282624 4.95829398 -0.86432944 2.59298833 0 0 Z " fill="#81AED5" transform="translate(578,422)"/>
<path d="M0 0 C0 3.3 0 6.6 0 10 C0.66 10 1.32 10 2 10 C2.21914063 10.54527344 2.43828125 11.09054687 2.6640625 11.65234375 C6.77295502 21.4234906 12.25502408 28.78577117 20 36 C18.515 36.495 18.515 36.495 17 37 C15.29099433 35.29099433 13.58274367 33.5813512 11.87890625 31.8671875 C10.3640589 30.36178826 8.81245656 28.89342543 7.25 27.4375 C4.500272 24.458628 2 21.1958039 2 17 C1.34 17 0.68 17 0 17 C-0.99 13.7 -1.98 10.4 -3 7 C-3.99 7 -4.98 7 -6 7 C-6 4.69 -6 2.38 -6 0 C-4 -1 -4 -1 0 0 Z " fill="#77B9E9" transform="translate(507,428)"/>
<path d="M0 0 C1.33897583 0.95043374 2.67105427 1.91059147 4 2.875 C5.11375 3.67550781 5.11375 3.67550781 6.25 4.4921875 C6.8275 4.98976563 7.405 5.48734375 8 6 C8 6.66 8 7.32 8 8 C8.66 8 9.32 8 10 8 C10 8.66 10 9.32 10 10 C11.32 9.01 12.64 8.02 14 7 C14.7425 7.969375 15.485 8.93875 16.25 9.9375 C17.97309915 12.02387361 18.73868694 12.90112479 21.3125 13.875 C22.1478125 13.936875 22.1478125 13.936875 23 14 C23.061875 14.9075 23.12375 15.815 23.1875 16.75 C24.21519348 20.86077391 25.69873187 21.44902008 29 24 C32.04124472 27.99585764 34.52222946 31.90378091 35 37 C34.34 37 33.68 37 33 37 C32.75765625 36.48050781 32.5153125 35.96101563 32.265625 35.42578125 C31.93046875 34.72839844 31.5953125 34.03101563 31.25 33.3125 C30.92515625 32.62800781 30.6003125 31.94351562 30.265625 31.23828125 C27.70702924 26.71335726 24.50929787 23.37383276 20.4375 20.1875 C19.56738281 19.50558594 18.69726562 18.82367188 17.80078125 18.12109375 C14.06732307 15.29366308 10.27189693 12.55918092 6.4453125 9.859375 C4.07991365 8.06076501 2.08369096 6.11075188 0 4 C-0.66 3.67 -1.32 3.34 -2 3 C-2 2.34 -2 1.68 -2 1 C-1.34 0.67 -0.68 0.34 0 0 Z " fill="#699ECF" transform="translate(527,464)"/>
<path d="M0 0 C7.09896959 0.89828789 11.62803212 5.99389377 15.9140625 11.42578125 C20 17.34167654 20 17.34167654 20 21 C20.66 21 21.32 21 22 21 C22 21.99 22 22.98 22 24 C21.34 24 20.68 24 20 24 C19.9071875 25.0209375 19.9071875 25.0209375 19.8125 26.0625 C18.71461145 30.03178937 16.50976025 32.78639555 14 36 C12.57794618 33.15589237 13.71538062 31.3719686 14.51953125 28.44140625 C15.39400845 23.99792456 15.14916898 19.50821809 15 15 C14.34 15 13.68 15 13 15 C12.13850348 13.62160556 11.27739242 12.24296906 10.41796875 10.86328125 C7.98700265 7.66887125 4.88004479 5.22100567 1.828125 2.63671875 C1.22484375 2.09660156 0.6215625 1.55648438 0 1 C0 0.67 0 0.34 0 0 Z " fill="#2F599D" transform="translate(540,480)"/>
<path d="M0 0 C0.66 0 1.32 0 2 0 C2 0.99 2 1.98 2 3 C2.763125 3 3.52625 3 4.3125 3 C6.20833333 3 8.10416667 3 10 3 C11.03125 2.979375 12.0625 2.95875 13.125 2.9375 C16 3 16 3 17 4 C17.125 7.5 17.125 7.5 17 11 C16 12 16 12 13.1875 12.0625 C12.135625 12.041875 11.08375 12.02125 10 12 C8.68 12 7.36 12 6 12 C5.67 10.02 5.34 8.04 5 6 C4.34 6 3.68 6 3 6 C2.67 7.98 2.34 9.96 2 12 C1.34 12 0.68 12 0 12 C0 8.04 0 4.08 0 0 Z M12 5 C11.67 5.66 11.34 6.32 11 7 C12.32 6.67 13.64 6.34 15 6 C14.01 5.67 13.02 5.34 12 5 Z " fill="#1863B7" transform="translate(480,590)"/>
<path d="M0 0 C1.32 0.33 2.64 0.66 4 1 C3.01 1.495 3.01 1.495 2 2 C1.938125 2.70125 1.87625 3.4025 1.8125 4.125 C0.55745979 8.5659115 -2.36903665 11.2490461 -6 14 C-9.375 15 -9.375 15 -12 15 C-13 14 -13 14 -13.0625 10.4375 C-13.041875 9.303125 -13.02125 8.16875 -13 7 C-10.69 7 -8.38 7 -6 7 C-6 6.01 -6 5.02 -6 4 C-4.02 3.67 -2.04 3.34 0 3 C0 2.01 0 1.02 0 0 Z " fill="#6CA728" transform="translate(534,441)"/>
<path d="M0 0 C0.99 0 1.98 0 3 0 C3 0.66 3 1.32 3 2 C1.02 2.33 -0.96 2.66 -3 3 C-3 3.99 -3 4.98 -3 6 C-5.31 6 -7.62 6 -10 6 C-9.67039784 11.01535052 -9.67039784 11.01535052 -7 15 C-7.33 15.99 -7.66 16.98 -8 18 C-13.79310345 12.17241379 -13.79310345 12.17241379 -14.5625 7.8125 C-13.93006708 4.65033539 -13.23646244 3.30008172 -11 1 C-8.5546875 0.64453125 -8.5546875 0.64453125 -5.875 0.8125 C-4.25113152 0.89957701 -2.62588559 0.96794849 -1 1 C-0.67 0.67 -0.34 0.34 0 0 Z " fill="#89B64B" transform="translate(531,442)"/>
<path d="M0 0 C0.66 0 1.32 0 2 0 C1.74337755 1.44010481 1.46909179 2.8770687 1.1875 4.3125 C1.03667969 5.11300781 0.88585937 5.91351563 0.73046875 6.73828125 C-0.08500756 9.26320524 -0.91953671 10.38069734 -3 12 C-3.66 12 -4.32 12 -5 12 C-6.37223158 13.12065579 -7.70035578 14.29591786 -9 15.5 C-12.77777778 19 -12.77777778 19 -15 19 C-14.15253815 14.3900304 -11.35462155 12.05373584 -8.0625 8.9375 C-3.6961187 4.76644489 -3.6961187 4.76644489 0 0 Z " fill="#164A9D" transform="translate(575,421)"/>
<path d="M0 0 C3.43927579 1.2419607 6.25207819 2.55740284 9 5 C9 5.66 9 6.32 9 7 C9.66 7 10.32 7 11 7 C14.75363329 12.63044993 14.82050801 18.38411433 14 25 C12.94314503 27.99213486 11.67555634 30.27722095 10 33 C9.01 32.67 8.02 32.34 7 32 C7.474375 31.278125 7.94875 30.55625 8.4375 29.8125 C11.43440314 24.41807434 11.95298022 18.33543077 10.25 12.375 C7.64392175 7.42345133 4.78172705 4.78934078 0 2 C0 1.34 0 0.68 0 0 Z " fill="#8BC0E5" transform="translate(535,492)"/>
<path d="M0 0 C0.825 0.04125 1.65 0.0825 2.5 0.125 C3.16 0.125 3.82 0.125 4.5 0.125 C6.16666667 0.125 7.83333333 0.125 9.5 0.125 C9.5 0.785 9.5 1.445 9.5 2.125 C8.84 2.125 8.18 2.125 7.5 2.125 C7.17 4.435 6.84 6.745 6.5 9.125 C5.18 9.125 3.86 9.125 2.5 9.125 C1.200625 9.186875 1.200625 9.186875 -0.125 9.25 C-2.5 9.125 -2.5 9.125 -4.5 7.125 C-4.75 4.625 -4.75 4.625 -4.5 2.125 C-2.5 0.125 -2.5 0.125 0 0 Z M-1.5 2.125 C-1.83 3.115 -2.16 4.105 -2.5 5.125 C-2.17 5.785 -1.84 6.445 -1.5 7.125 C-0.51 7.125 0.48 7.125 1.5 7.125 C1.83 6.135 2.16 5.145 2.5 4.125 C2.17 3.465 1.84 2.805 1.5 2.125 C0.51 2.125 -0.48 2.125 -1.5 2.125 Z " fill="#1863B7" transform="translate(460.5,592.875)"/>
<path d="M0 0 C4.703153 1.3832803 8.10193812 4.08612262 11 8 C11 8.99 11 9.98 11 11 C11.99 11.33 12.98 11.66 14 12 C14.144375 12.94875 14.28875 13.8975 14.4375 14.875 C14.82935399 17.8934494 14.82935399 17.8934494 16 20 C15.66015625 21.9453125 15.66015625 21.9453125 15.0625 24.125 C14.86785156 24.84945312 14.67320312 25.57390625 14.47265625 26.3203125 C14.31667969 26.87460937 14.16070313 27.42890625 14 28 C13.67 28 13.34 28 13 28 C12.95101562 27.20335937 12.90203125 26.40671875 12.8515625 25.5859375 C12.29970605 17.61842686 12.29970605 17.61842686 10 10 C9.34 10 8.68 10 8 10 C6.31237149 8.3545622 4.6459651 6.68711423 3 5 C2.34 4.67 1.68 4.34 1 4 C1 3.34 1 2.68 1 2 C0.34 1.67 -0.32 1.34 -1 1 C-0.67 0.67 -0.34 0.34 0 0 Z " fill="#2C8AD8" transform="translate(536,489)"/>
<path d="M0 0 C0.66 0 1.32 0 2 0 C2 3.96 2 7.92 2 12 C-0.64 12 -3.28 12 -6 12 C-7.125 5.25 -7.125 5.25 -6 3 C-4.02 3 -2.04 3 0 3 C0 2.01 0 1.02 0 0 Z M-4 5 C-4.33 6.32 -4.66 7.64 -5 9 C-3.68 9.33 -2.36 9.66 -1 10 C-0.67 9.01 -0.34 8.02 0 7 C-0.33 6.34 -0.66 5.68 -1 5 C-1.99 5 -2.98 5 -4 5 Z " fill="#1863B7" transform="translate(541,590)"/>
<path d="M0 0 C0 4.33333333 0 8.66666667 0 13 C1.65 12.34 3.3 11.68 5 11 C5.33 14.63 5.66 18.26 6 22 C3.95880212 20.38405168 1.95927063 18.7143618 0 17 C0 16.34 0 15.68 0 15 C-0.99 14.67 -1.98 14.34 -3 14 C-3.28999065 5.44527596 -3.28999065 5.44527596 -1 1 C-0.67 0.67 -0.34 0.34 0 0 Z " fill="#2684D5" transform="translate(541,456)"/>
<path d="M0 0 C1.32 0.33 2.64 0.66 4 1 C5.25 8.625 5.25 8.625 3 12 C2.67 8.7 2.34 5.4 2 2 C1.31640625 3.98567708 0.6328125 5.97135417 -0.05078125 7.95703125 C-1.08846512 10.19040024 -2.08120767 11.46496613 -4 13 C-6.6875 13.1875 -6.6875 13.1875 -9 13 C-8.04270084 11.87411986 -7.08412105 10.7493285 -6.125 9.625 C-5.59132813 8.99851562 -5.05765625 8.37203125 -4.5078125 7.7265625 C-3.38567993 6.44163349 -2.20628025 5.20628025 -1 4 C-0.3574765 1.93125966 -0.3574765 1.93125966 0 0 Z " fill="#629F2C" transform="translate(536,443)"/>
<path d="M0 0 C0.66 0 1.32 0 2 0 C2 1.32 2 2.64 2 4 C1.34 4 0.68 4 0 4 C-0.09796875 4.56847656 -0.1959375 5.13695312 -0.296875 5.72265625 C-1.36323919 11.22914031 -2.98284249 15.2731199 -6 20 C-6.66 20 -7.32 20 -8 20 C-8.33 21.32 -8.66 22.64 -9 24 C-9.99 24 -10.98 24 -12 24 C-11.3543999 20.51375944 -10.07639763 17.87501211 -8 15 C-7.01 15 -6.02 15 -5 15 C-3.39107502 10.35536751 -1.90745635 5.8397672 -1 1 C-0.67 0.67 -0.34 0.34 0 0 Z " fill="#185FB2" transform="translate(578,418)"/>
<path d="M0 0 C0.66 0 1.32 0 2 0 C2 1.65 2 3.3 2 5 C3.65 5 5.3 5 7 5 C7 3.35 7 1.7 7 0 C7.66 0 8.32 0 9 0 C9 3.96 9 7.92 9 12 C8.34 12 7.68 12 7 12 C7 10.35 7 8.7 7 7 C5.35 7 3.7 7 2 7 C2 8.65 2 10.3 2 12 C1.34 12 0.68 12 0 12 C0 8.04 0 4.08 0 0 Z " fill="#1863B7" transform="translate(409,590)"/>
<path d="M0 0 C6.75255981 0.82174008 11.374195 5.66885908 15.46875 10.86328125 C16.36694134 12.20736043 17.19418685 13.59858583 18 15 C17.67 15.66 17.34 16.32 17 17 C16.34 17 15.68 17 15 17 C15 16.34 15 15.68 15 15 C14.34 15 13.68 15 13 15 C12.13850348 13.62160556 11.27739242 12.24296906 10.41796875 10.86328125 C7.98700265 7.66887125 4.88004479 5.22100567 1.828125 2.63671875 C1.22484375 2.09660156 0.6215625 1.55648438 0 1 C0 0.67 0 0.34 0 0 Z " fill="#205EAD" transform="translate(540,480)"/>
<path d="M0 0 C0.33 5.61 0.66 11.22 1 17 C-1.18975773 13.71536341 -1.99806563 10.79303725 -3 7 C-3.99 7 -4.98 7 -6 7 C-6 4.69 -6 2.38 -6 0 C-4 -1 -4 -1 0 0 Z " fill="#7FA8CF" transform="translate(507,428)"/>
<path d="M0 0 C0.99 0.33 1.98 0.66 3 1 C3 1.66 3 2.32 3 3 C2.319375 3.53625 1.63875 4.0725 0.9375 4.625 C-2.17478974 7.14131936 -4.56351432 9.86190249 -7.15234375 12.89453125 C-9.95015102 16.08273024 -12.96064809 19.04379146 -16 22 C-16.33 21.01 -16.66 20.02 -17 19 C-16.48050781 18.56429688 -15.96101562 18.12859375 -15.42578125 17.6796875 C-7.7963403 11.39824967 -7.7963403 11.39824967 -3 3 C-1.4375 1.3125 -1.4375 1.3125 0 0 Z " fill="#6286B7" transform="translate(577,415)"/>
<path d="M0 0 C1.32 0 2.64 0 4 0 C4.33 1.32 4.66 2.64 5 4 C5.66 4 6.32 4 7 4 C7.33 2.68 7.66 1.36 8 0 C9.32 0.33 10.64 0.66 12 1 C11.360625 2.0725 10.72125 3.145 10.0625 4.25 C8.59398727 6.80822182 7.47145458 9.05340886 7 12 C6.34 12 5.68 12 5 12 C4.731875 11.13375 4.46375 10.2675 4.1875 9.375 C3.02888013 6.08208036 1.61790161 3.08872125 0 0 Z " fill="#1863B7" transform="translate(546,590)"/>
<path d="M0 0 C2.5 0.25 2.5 0.25 4.5 2.25 C4.75 4.75 4.75 4.75 4.5 7.25 C2.5 9.25 2.5 9.25 0 9.5 C-2.5 9.25 -2.5 9.25 -4.5 7.25 C-4.75 4.75 -4.75 4.75 -4.5 2.25 C-2.5 0.25 -2.5 0.25 0 0 Z M-1.5 2.25 C-1.83 3.24 -2.16 4.23 -2.5 5.25 C-2.17 5.91 -1.84 6.57 -1.5 7.25 C-0.51 7.25 0.48 7.25 1.5 7.25 C1.83 6.26 2.16 5.27 2.5 4.25 C2.17 3.59 1.84 2.93 1.5 2.25 C0.51 2.25 -0.48 2.25 -1.5 2.25 Z " fill="#1863B7" transform="translate(658.5,592.75)"/>
<path d="M0 0 C2.5 0.25 2.5 0.25 4.5 2.25 C4.75 4.75 4.75 4.75 4.5 7.25 C2.5 9.25 2.5 9.25 0 9.5 C-2.5 9.25 -2.5 9.25 -4.5 7.25 C-4.75 4.75 -4.75 4.75 -4.5 2.25 C-2.5 0.25 -2.5 0.25 0 0 Z M-1.5 2.25 C-1.83 3.24 -2.16 4.23 -2.5 5.25 C-2.17 5.91 -1.84 6.57 -1.5 7.25 C-0.51 7.25 0.48 7.25 1.5 7.25 C1.83 6.26 2.16 5.27 2.5 4.25 C2.17 3.59 1.84 2.93 1.5 2.25 C0.51 2.25 -0.48 2.25 -1.5 2.25 Z " fill="#1863B7" transform="translate(560.5,592.75)"/>
<path d="M0 0 C0.66 0 1.32 0 2 0 C2 0.99 2 1.98 2 3 C2.804375 2.979375 3.60875 2.95875 4.4375 2.9375 C7 3 7 3 8 4 C8.14115161 6.67058851 8.04247107 9.32432238 8 12 C7.34 12 6.68 12 6 12 C5.67 10.02 5.34 8.04 5 6 C4.34 6 3.68 6 3 6 C2.67 7.98 2.34 9.96 2 12 C1.34 12 0.68 12 0 12 C0 8.04 0 4.08 0 0 Z " fill="#1863B7" transform="translate(580,590)"/>
<path d="M0 0 C0.66 0.99 1.32 1.98 2 3 C-3.94 8.445 -3.94 8.445 -10 14 C-10.66 13.67 -11.32 13.34 -12 13 C-9.375 8.125 -9.375 8.125 -6 7 C-4.79117904 4.99983534 -4.79117904 4.99983534 -4 3 C-3.34 3 -2.68 3 -2 3 C-2 2.34 -2 1.68 -2 1 C-1.34 0.67 -0.68 0.34 0 0 Z " fill="#1F64B5" transform="translate(559,438)"/>
<path d="M0 0 C0.66 0 1.32 0 2 0 C2 3.96 2 7.92 2 12 C1.34 12 0.68 12 0 12 C0 9.69 0 7.38 0 5 C-0.99 5.495 -0.99 5.495 -2 6 C-2.65772428 9.02934491 -2.65772428 9.02934491 -3 12 C-3.66 12 -4.32 12 -5 12 C-5 9.03 -5 6.06 -5 3 C-3.35 3 -1.7 3 0 3 C0 2.01 0 1.02 0 0 Z " fill="#1863B7" transform="translate(531,590)"/>
<path d="M0 0 C3.59977373 1.79988686 4.21975039 6.40133894 5.5859375 10.01953125 C7.02747039 13.05790029 8.60816097 14.6954169 11 17 C10.75 19.25 10.75 19.25 10 21 C9.34 19.68 8.68 18.36 8 17 C7.34 17 6.68 17 6 17 C5.60167969 16.18595703 5.60167969 16.18595703 5.1953125 15.35546875 C4.84210938 14.64003906 4.48890625 13.92460937 4.125 13.1875 C3.77695312 12.47980469 3.42890625 11.77210938 3.0703125 11.04296875 C1.9343514 8.78753582 1.9343514 8.78753582 0 6 C-0.125 2.8125 -0.125 2.8125 0 0 Z " fill="#86A8CF" transform="translate(501,454)"/>
<path d="M0 0 C0.33 0 0.66 0 1 0 C1.16048732 2.80852818 1.12678137 4.70681808 0 7.3125 C-1.69580577 11.86997802 -1.5435692 16.3692924 0 21 C-0.66 21 -1.32 21 -2 21 C-4.9253964 15.3832389 -5.34641886 12.2142409 -4 6 C-3.34 5.01 -2.68 4.02 -2 3 C-1.34 3 -0.68 3 0 3 C0 2.01 0 1.02 0 0 Z " fill="#84B4CD" transform="translate(540,452)"/>
<path d="M0 0 C0.66 0.33 1.32 0.66 2 1 C1.01 3.97 0.02 6.94 -1 10 C-1.66 10 -2.32 10 -3 10 C-3.226875 10.721875 -3.45375 11.44375 -3.6875 12.1875 C-5.50394694 16.0798863 -8.12274973 19.06137486 -12 21 C-11.41659192 17.15481036 -9.62657629 15.09684239 -7.125 12.1875 C-3.85556464 8.23253787 -1.68001061 4.8300305 0 0 Z " fill="#778FB7" transform="translate(560,504)"/>
<path d="M0 0 C0.33 0.66 0.66 1.32 1 2 C0.67 2.66 0.34 3.32 0 4 C0.99 4 1.98 4 3 4 C4.53515625 5.609375 4.53515625 5.609375 6.0625 7.75 C6.56910156 8.44609375 7.07570313 9.1421875 7.59765625 9.859375 C8.90409608 11.85360628 9.98566985 13.84515509 11 16 C6.8443516 14.66732655 4.85980998 13.10089737 2.25 9.625 C1.65703125 8.85414063 1.0640625 8.08328125 0.453125 7.2890625 C-0.9218313 5.12313671 -1.56520623 3.50578512 -2 1 C-1.34 0.67 -0.68 0.34 0 0 Z " fill="#1C59A9" transform="translate(507,460)"/>
<path d="M0 0 C1.32 0.33 2.64 0.66 4 1 C2.33333333 2.66666667 0.66666667 4.33333333 -1 6 C-1.66 6.78375 -2.32 7.5675 -3 8.375 C-5 10 -5 10 -7.5625 9.875 C-10 9 -10 9 -13 7 C-10.69 7 -8.38 7 -6 7 C-6 6.01 -6 5.02 -6 4 C-4.02 3.67 -2.04 3.34 0 3 C0 2.01 0 1.02 0 0 Z " fill="#7EB33A" transform="translate(534,441)"/>
<path d="M0 0 C1.99954746 -0.04254356 4.00041636 -0.04080783 6 0 C7 1 7 1 7.09765625 2.84765625 C7.06510417 4.8984375 7.03255208 6.94921875 7 9 C6.34 9 5.68 9 5 9 C4.67 7.02 4.34 5.04 4 3 C3.67 3 3.34 3 3 3 C2.67 4.98 2.34 6.96 2 9 C1.34 9 0.68 9 0 9 C0 6.03 0 3.06 0 0 Z " fill="#1863B7" transform="translate(664,593)"/>
<path d="M0 0 C0.66 0 1.32 0 2 0 C2.33 1.98 2.66 3.96 3 6 C3.33 6 3.66 6 4 6 C4.33 4.02 4.66 2.04 5 0 C5.66 0 6.32 0 7 0 C7 2.97 7 5.94 7 9 C5.00045254 9.04254356 2.99958364 9.04080783 1 9 C0 8 0 8 -0.09765625 6.15234375 C-0.06510417 4.1015625 -0.03255208 2.05078125 0 0 Z " fill="#1863B7" transform="translate(566,593)"/>
<path d="M0 0 C1.33897583 0.95043374 2.67105427 1.91059147 4 2.875 C5.11375 3.67550781 5.11375 3.67550781 6.25 4.4921875 C6.8275 4.98976563 7.405 5.48734375 8 6 C8 6.66 8 7.32 8 8 C8.66 8 9.32 8 10 8 C10 8.66 10 9.32 10 10 C10.99 10.33 11.98 10.66 13 11 C12.67 11.99 12.34 12.98 12 14 C7.72104929 10.88425919 3.68147302 7.82306814 0 4 C-0.66 3.67 -1.32 3.34 -2 3 C-2 2.34 -2 1.68 -2 1 C-1.34 0.67 -0.68 0.34 0 0 Z " fill="#5C95C9" transform="translate(527,464)"/>
<path d="M0 0 C0.99 0 1.98 0 3 0 C3 0.66 3 1.32 3 2 C1.02 2.33 -0.96 2.66 -3 3 C-3 3.66 -3 4.32 -3 5 C-6.3 5 -9.6 5 -13 5 C-12.34 3.68 -11.68 2.36 -11 1 C-10.28972656 1.01160156 -9.57945312 1.02320313 -8.84765625 1.03515625 C-7.92855469 1.04417969 -7.00945313 1.05320312 -6.0625 1.0625 C-4.68771484 1.07990234 -4.68771484 1.07990234 -3.28515625 1.09765625 C-1.03406673 1.25949049 -1.03406673 1.25949049 0 0 Z " fill="#A8CC6D" transform="translate(531,442)"/>
<path d="M0 0 C1.32 0 2.64 0 4 0 C4 1.65 4 3.3 4 5 C3.34 5 2.68 5 2 5 C2 7.31 2 9.62 2 12 C1.34 12 0.68 12 0 12 C0 9.69 0 7.38 0 5 C-0.66 5 -1.32 5 -2 5 C-2 4.34 -2 3.68 -2 3 C-1.34 3 -0.68 3 0 3 C0 2.01 0 1.02 0 0 Z " fill="#1863B7" transform="translate(452,590)"/>
<path d="M0 0 C0.66 0 1.32 0 2 0 C2 0.66 2 1.32 2 2 C2.66 2 3.32 2 4 2 C4 2.66 4 3.32 4 4 C3.34 4 2.68 4 2 4 C2.66 6.31 3.32 8.62 4 11 C2.68 10.67 1.36 10.34 0 10 C-1.125 2.25 -1.125 2.25 0 0 Z " fill="#1863B7" transform="translate(575,591)"/>
<path d="M0 0 C0.66 0 1.32 0 2 0 C2 0.66 2 1.32 2 2 C2.66 2 3.32 2 4 2 C4 2.66 4 3.32 4 4 C3.34 4 2.68 4 2 4 C2.66 6.31 3.32 8.62 4 11 C2.68 10.67 1.36 10.34 0 10 C-1.125 2.25 -1.125 2.25 0 0 Z " fill="#1863B7" transform="translate(475,591)"/>
<path d="M0 0 C3.96 0 7.92 0 12 0 C12 0.66 12 1.32 12 2 C9.75487738 3.12256131 8.48543351 3.13413762 6 3.125 C4.948125 3.12886719 4.948125 3.12886719 3.875 3.1328125 C2 3 2 3 0 2 C0 1.34 0 0.68 0 0 Z " fill="#69A04A" transform="translate(524,459)"/>
<path d="M0 0 C0.33 0.99 0.66 1.98 1 3 C-0.14453125 5.26171875 -0.14453125 5.26171875 -1.8125 7.6875 C-2.35519531 8.49574219 -2.89789062 9.30398438 -3.45703125 10.13671875 C-3.96621094 10.75160156 -4.47539063 11.36648438 -5 12 C-5.66 12 -6.32 12 -7 12 C-6.67566492 6.64847115 -3.50295176 3.71719957 0 0 Z " fill="#175CAE" transform="translate(556,454)"/>
<path d="M0 0 C0.33 0.66 0.66 1.32 1 2 C3.52733235 2.65555119 3.52733235 2.65555119 6 3 C5.67 3.66 5.34 4.32 5 5 C2.93359375 5.4140625 2.93359375 5.4140625 0.4375 5.625 C-0.38878906 5.69976562 -1.21507812 5.77453125 -2.06640625 5.8515625 C-3.02353516 5.92503906 -3.02353516 5.92503906 -4 6 C-3.34 4.68 -2.68 3.36 -2 2 C-1.34 2 -0.68 2 0 2 C0 1.34 0 0.68 0 0 Z " fill="#C6DEA0" transform="translate(524,438)"/>
<path d="M0 0 C0.66 0 1.32 0 2 0 C2 0.66 2 1.32 2 2 C3.32 2.33 4.64 2.66 6 3 C6.33 4.65 6.66 6.3 7 8 C7.66 8 8.32 8 9 8 C9 9.65 9 11.3 9 13 C8.01 13.495 8.01 13.495 7 14 C6.82984375 13.37351562 6.6596875 12.74703125 6.484375 12.1015625 C6.24203125 11.28429687 5.9996875 10.46703125 5.75 9.625 C5.51796875 8.81289063 5.2859375 8.00078125 5.046875 7.1640625 C3.7785108 4.54214546 2.67576692 4.00617682 0 3 C0 2.01 0 1.02 0 0 Z " fill="#98C27C" transform="translate(534,438)"/>
<path d="M0 0 C0.33 1.32 0.66 2.64 1 4 C-1.64 6.31 -4.28 8.62 -7 11 C-7 7.22089522 -6.00296038 6.53893899 -3.5 3.8125 C-2.8503125 3.09707031 -2.200625 2.38164062 -1.53125 1.64453125 C-1.0259375 1.10183594 -0.520625 0.55914062 0 0 Z " fill="#6DA0D0" transform="translate(567,444)"/>
<path d="M0 0 C4.49722423 1.49907474 5.88686562 4.9120455 8 9 C8.8125 12 8.8125 12 9 14 C8.34 14 7.68 14 7 14 C6.74605469 13.46890625 6.49210938 12.9378125 6.23046875 12.390625 C4.40249254 8.63882365 2.55135689 5.31676395 0 2 C0 1.34 0 0.68 0 0 Z " fill="#8DACCE" transform="translate(553,487)"/>
<path d="M0 0 C0.66 0 1.32 0 2 0 C2.64757625 1.43671568 3.29299453 2.87440416 3.9375 4.3125 C4.29714844 5.11300781 4.65679687 5.91351563 5.02734375 6.73828125 C6 9 6 9 7 12 C5.1875 11.4375 5.1875 11.4375 3 10 C1.21313946 6.49009536 0 3.95875396 0 0 Z " fill="#9BD4F2" transform="translate(507,438)"/>
<path d="M0 0 C0 0.99 0 1.98 0 3 C0.02320313 3.7115625 0.04640625 4.423125 0.0703125 5.15625 C0.08835937 5.9296875 0.10640625 6.703125 0.125 7.5 C0.14820313 8.2734375 0.17140625 9.046875 0.1953125 9.84375 C0 12 0 12 -2 15 C-3 14 -3 14 -3.1875 10.25 C-3.14706134 6.49594405 -2.7907821 2.7907821 0 0 Z " fill="#408BD2" transform="translate(541,456)"/>
<path d="M0 0 C4.28324091 2.51407619 6.64531705 4.12314139 8 9 C7.01 9 6.02 9 5 9 C5 8.34 5 7.68 5 7 C4.34 7 3.68 7 3 7 C0 2.61538462 0 2.61538462 0 0 Z " fill="#1850A3" transform="translate(550,488)"/>
<path d="M0 0 C0.33 0 0.66 0 1 0 C0.40546697 9.59453303 0.40546697 9.59453303 -3 13 C-3.31563182 7.73946963 -2.66590937 4.55426184 0 0 Z " fill="#769DC9" transform="translate(552,462)"/>
<path d="M0 0 C0.66 0 1.32 0 2 0 C2 1.32 2 2.64 2 4 C1.34 4 0.68 4 0 4 C-0.12117187 4.63808594 -0.24234375 5.27617187 -0.3671875 5.93359375 C-0.53476562 6.75988281 -0.70234375 7.58617187 -0.875 8.4375 C-1.03742187 9.26121094 -1.19984375 10.08492188 -1.3671875 10.93359375 C-1.57601562 11.61550781 -1.78484375 12.29742187 -2 13 C-2.99 13.495 -2.99 13.495 -4 14 C-3.71715982 12.22773547 -3.42339502 10.457212 -3.125 8.6875 C-2.96257813 7.70136719 -2.80015625 6.71523438 -2.6328125 5.69921875 C-2 3 -2 3 0 0 Z " fill="#2D5DA6" transform="translate(578,418)"/>
<path d="M0 0 C0.33 0.66 0.66 1.32 1 2 C1.66 2.33 2.32 2.66 3 3 C1.8125 5.4375 1.8125 5.4375 0 8 C-2.6875 8.8125 -2.6875 8.8125 -5 9 C-4.34 8.67 -3.68 8.34 -3 8 C-2.63451555 6.67511887 -2.3062434 5.33981486 -2 4 C-1.36345658 2.6520257 -0.70394612 1.31403276 0 0 Z " fill="#4085BD" transform="translate(548,517)"/>
<path d="M0 0 C0.33 0 0.66 0 1 0 C1.10853491 1.74861792 1.18583428 3.49919241 1.25 5.25 C1.29640625 6.22453125 1.3428125 7.1990625 1.390625 8.203125 C1 11 1 11 -3 15 C-2.01 10.05 -1.02 5.1 0 0 Z " fill="#1D68BA" transform="translate(556,501)"/>
<path d="M0 0 C3 3 3 3 4 6 C3.54451823 8.73812607 2.74685247 11.3201176 2 14 C1.67 14 1.34 14 1 14 C0.67 9.38 0.34 4.76 0 0 Z " fill="#4396D9" transform="translate(548,503)"/>
<path d="M0 0 C3.43927579 1.2419607 6.25207819 2.55740284 9 5 C9 5.66 9 6.32 9 7 C9.66 7.33 10.32 7.66 11 8 C7.90694578 7.39096941 5.80360238 6.40131197 3.25 4.5625 C2.63640625 4.13066406 2.0228125 3.69882812 1.390625 3.25390625 C0.70226562 2.63322266 0.70226562 2.63322266 0 2 C0 1.34 0 0.68 0 0 Z " fill="#74B2DD" transform="translate(535,492)"/>
<path d="M0 0 C3.14958831 3.42346555 3.56179109 6.44262737 4 11 C3.01 11 2.02 11 1 11 C-0.20272819 8.59454362 -0.10071472 7.05003047 -0.0625 4.375 C-0.05347656 3.55773437 -0.04445313 2.74046875 -0.03515625 1.8984375 C-0.02355469 1.27195312 -0.01195312 0.64546875 0 0 Z " fill="#3D7DC1" transform="translate(546,467)"/>
<path d="M0 0 C1.32 0.33 2.64 0.66 4 1 C4 2.98 4 4.96 4 7 C2.68 7 1.36 7 0 7 C0 4.69 0 2.38 0 0 Z " fill="#6881B2" transform="translate(501,428)"/>
<path d="M0 0 C0.99 0.33 1.98 0.66 3 1 C3 1.66 3 2.32 3 3 C1.34997172 4.35386936 -0.3174387 5.68678142 -2 7 C-2.33 7.66 -2.66 8.32 -3 9 C-3.66 9 -4.32 9 -5 9 C-3.90931332 5.22454612 -3.0916909 2.52956528 0 0 Z " fill="#869EC8" transform="translate(577,415)"/>
<path d="M0 0 C2.64 0.66 5.28 1.32 8 2 C8.33 3.32 8.66 4.64 9 6 C5.06326356 4.68775452 2.77280706 3.08089673 0 0 Z " fill="#2C7BC6" transform="translate(526,484)"/>
<path d="M0 0 C0.66 0.66 1.32 1.32 2 2 C0.99806563 5.79303725 0.18975773 8.71536341 -2 12 C-2.99 11.67 -3.98 11.34 -5 11 C-4.54625 10.67 -4.0925 10.34 -3.625 10 C-1.15680026 6.9622157 -0.81156856 3.80812939 0 0 Z " fill="#51941E" transform="translate(537,444)"/>
<path d="M0 0 C0.33 0.99 0.66 1.98 1 3 C0.01 3.33 -0.98 3.66 -2 4 C-2 4.66 -2 5.32 -2 6 C-5.46153846 9 -5.46153846 9 -8 9 C-6.90101298 5.70303895 -6.05402613 4.95329411 -3.4375 2.8125 C-2.79683594 2.28269531 -2.15617188 1.75289063 -1.49609375 1.20703125 C-0.75552734 0.60955078 -0.75552734 0.60955078 0 0 Z " fill="#749ECA" transform="translate(559,435)"/>
<path d="M0 0 C0 3 0 3 -2.375 5.625 C-5 8 -5 8 -7 9 C-6.82374165 6.62051228 -6.30280227 5.29774151 -4.59765625 3.62109375 C-3.09350908 2.37884514 -1.54870149 1.18623944 0 0 Z " fill="#7E99C4" transform="translate(555,516)"/>
<path d="M0 0 C2.4375 0.8125 2.4375 0.8125 5 2 C5.33 2.99 5.66 3.98 6 5 C4.35 4.67 2.7 4.34 1 4 C1 3.34 1 2.68 1 2 C0.34 1.67 -0.32 1.34 -1 1 C-0.67 0.67 -0.34 0.34 0 0 Z " fill="#277FCE" transform="translate(536,489)"/>
<path d="M0 0 C2.31 1.98 4.62 3.96 7 6 C6.01 6.33 5.02 6.66 4 7 C2 5.1875 2 5.1875 0 3 C0 2.01 0 1.02 0 0 Z " fill="#6794C5" transform="translate(512,473)"/>
<path d="M0 0 C0.66 0 1.32 0 2 0 C2 2.97 2 5.94 2 9 C1.34 9 0.68 9 0 9 C0 6.03 0 3.06 0 0 Z " fill="#1863B7" transform="translate(651,593)"/>
<path d="M0 0 C1.32 0 2.64 0 4 0 C5.75 2 5.75 2 7 4 C6.67 4.66 6.34 5.32 6 6 C3.97945196 4.35830472 1.97956942 2.69088222 0 1 C0 0.67 0 0.34 0 0 Z " fill="#5E8ABC" transform="translate(546,482)"/>
<path d="M0 0 C0.99 0 1.98 0 3 0 C4.75 1.8125 4.75 1.8125 6 4 C5.67 4.99 5.34 5.98 5 7 C0 1.125 0 1.125 0 0 Z " fill="#ADCF9A" transform="translate(518,453)"/>
<path d="M0 0 C1.32 0.33 2.64 0.66 4 1 C3 2.5 3 2.5 1 4 C-1.71846235 4.27345479 -4.25677199 4.13491285 -7 4 C-7 3.67 -7 3.34 -7 3 C-4.69 3 -2.38 3 0 3 C0 2.01 0 1.02 0 0 Z " fill="#8ABB3A" transform="translate(528,445)"/>
<path d="M0 0 C0.66 0 1.32 0 2 0 C2 0.66 2 1.32 2 2 C1.34 2 0.68 2 0 2 C0 1.34 0 0.68 0 0 Z " fill="#1863B7" transform="translate(651,590)"/>
<path d="M0 0 C0.66 0 1.32 0 2 0 C2 0.66 2 1.32 2 2 C1.34 2 0.68 2 0 2 C0 1.34 0 0.68 0 0 Z " fill="#1863B7" transform="translate(635,590)"/>
<path d="" fill="#A4C1DD" transform="translate(0,0)"/>
<path d="" fill="#8FB9DE" transform="translate(0,0)"/>
</svg>
